# xmcd
#
# Track frame offsets:
#	183
#	17423
#	47495
#	71493
#
# Disc length: 1141 seconds
#
# Revision: 2
# Processed by: cddbd v1.5.1PL0 Copyright (c) Steve Scherf et al.
# Submitted via: EasyCDDAExtractor 8.0.2.1
#
DISCID=26047304
DTITLE=Lighthouse Family - Ocean Drive [CD Single)
DYEAR=1995
DGENRE=R&B
TTITLE0=Ocean Drive (7")
TTITLE1=Ocean Drive (Linslee R&B Mix)
TTITLE2=Ocean Drive (Rokstone Dub Mix)
TTITLE3=Ocean Drive (Tactica Mix)
EXTD=
EXTT0=
EXTT1=
EXTT2=
EXTT3=
PLAYORDER=
